<?xml version="1.0" standalone="no"?>
<!DOCTYPE svg PUBLIC "-//W3C//DTD SVG 20010904//EN"
 "http://www.w3.org/TR/2001/REC-SVG-20010904/DTD/svg10.dtd">
<svg version="1.0" xmlns="http://www.w3.org/2000/svg"
 width="1920.000000pt" height="600.000000pt" viewBox="0 0 1920.000000 600.000000"
 preserveAspectRatio="xMidYMid meet">

<g transform="translate(0.000000,600.000000) scale(0.100000,-0.100000)"
fill="#ffffff" stroke="none">
<path d="M1935 5830 c-164 -7 -198 -15 -294 -63 -88 -44 -162 -121 -207 -216
-55 -114 -64 -157 -64 -328 l0 -153 180 0 180 0 1 123 c0 67 2 129 4 138 6 34
31 73 58 93 l28 21 8004 0 8004 0 27 -21 c55 -41 62 -66 63 -216 l1 -138 180
0 180 0 0 158 c-1 119 -5 171 -18 217 -55 187 -176 311 -362 369 -65 20 -69
20 -7940 21 -4331 1 -7942 -2 -8025 -5z m2195 -64 c0 -3 -4 -8 -10 -11 -5 -3
-10 -1 -10 4 0 6 5 11 10 11 6 0 10 -2 10 -4z m4660 -6 c0 -5 -7 -10 -16 -10
-8 0 -12 5 -9 10 3 6 10 10 16 10 5 0 9 -4 9 -10z m-4523 -62 c-3 -8 -6 -5 -6
6 -1 11 2 17 5 13 3 -3 4 -12 1 -19z m11533 -138 c0 -5 -5 -10 -11 -10 -5 0
-7 5 -4 10 3 6 8 10 11 10 2 0 4 -4 4 -10z m-6473 -86 c-3 -3 -12 -4 -19 -1
-8 3 -5 6 6 6 11 1 17 -2 13 -5z m1690 0 c-3 -3 -12 -4 -19 -1 -8 3 -5 6 6 6
11 1 17 -2 13 -5z m90 0 c-3 -3 -12 -4 -19 -1 -8 3 -5 6 6 6 11 1 17 -2 13 -5z"/>
<path d="M2571 5184 c-85 -23 -169 -73 -241 -144 -161 -159 -199 -308 -197
-768 2 -210 5 -264 16 -271 11 -7 11 -9 0 -13 -12 -4 -14 -198 -16 -1184 -1
-648 2 -1197 5 -1218 9 -52 36 -67 198 -112 71 -20 163 -46 204 -60 87 -27
325 -87 420 -105 46 -8 198 -11 515 -10 248 1 511 1 586 1 l136 0 47 77 c80
131 126 118 -419 120 -258 1 -476 2 -482 2 -10 1 -13 160 -13 764 0 419 3 772
6 785 l6 22 1264 0 c1004 0 1264 -3 1264 -12 0 -7 3 -355 6 -772 2 -418 7
-762 9 -766 10 -16 -70 -20 -382 -20 -306 0 -325 1 -318 18 25 62 45 129 45
154 l0 28 228 0 c125 0 233 4 240 8 17 12 28 383 12 441 -6 22 -12 42 -13 43
-1 1 -114 5 -251 8 l-250 5 -16 65 c-9 36 -21 75 -28 87 -7 12 -12 25 -12 28
0 3 126 5 281 3 237 -2 282 0 289 12 13 21 13 446 0 471 -10 19 -33 19 -1100
19 -933 0 -1091 -2 -1103 -14 -30 -30 -38 -453 -10 -482 12 -11 67 -14 299
-14 267 0 287 -1 325 -20 40 -21 169 -140 169 -156 0 -5 -178 -9 -395 -9 -341
0 -397 -2 -405 -15 -5 -8 -10 -118 -10 -246 0 -192 3 -234 15 -244 11 -9 121
-11 481 -7 403 4 468 7 482 20 12 13 16 49 20 172 l5 156 28 -27 c61 -59 88
-163 70 -279 -13 -89 -32 -129 -117 -249 -169 -236 -161 -511 20 -691 72 -72
129 -101 228 -116 88 -14 140 -7 210 26 82 39 128 80 128 116 0 61 -11 68
-108 67 -143 -2 -212 42 -212 137 0 68 46 123 160 190 36 21 80 50 98 64 l34
25 516 3 c285 2 523 6 531 9 12 4 13 151 6 972 -4 641 -10 971 -17 980 -8 9
-55 12 -170 12 l-160 0 -26 32 c-15 17 -46 53 -70 79 -69 76 -217 139 -328
139 -40 0 -45 7 -37 55 6 39 24 66 173 271 102 139 185 256 246 344 25 36 76
108 114 160 99 137 180 267 180 290 0 33 -168 296 -210 330 -4 3 -11 13 -16
23 -22 39 -107 116 -162 145 -121 65 -47 62 -1577 61 -1181 0 -1398 -2 -1444
-15z m259 -246 c63 -29 138 -100 220 -208 77 -102 82 -111 66 -141 -35 -67
-121 -197 -315 -479 -36 -52 -86 -126 -112 -165 -26 -38 -83 -120 -126 -182
-43 -61 -105 -150 -138 -197 -33 -47 -63 -86 -67 -86 -5 0 -8 258 -8 573 0
634 -1 624 65 735 96 163 260 223 415 150z m2423 -42 c4 -10 1 -13 -8 -9 -8 3
-12 9 -9 14 7 12 11 11 17 -5z m-1873 -66 c0 -5 -5 -10 -11 -10 -5 0 -7 5 -4
10 3 6 8 10 11 10 2 0 4 -4 4 -10z m2374 -241 c6 -6 -77 -131 -97 -147 -9 -8
-379 -12 -1240 -14 -675 -2 -1227 -1 -1227 1 0 2 17 27 39 55 21 28 46 63 56
78 l17 28 222 2 c370 5 2225 2 2230 -3z m-1129 -446 c120 -38 173 -69 251
-147 89 -90 136 -168 169 -281 46 -158 30 -343 -36 -437 -24 -33 -44 -37 -201
-41 -110 -3 -145 3 -99 18 28 9 80 71 101 120 10 23 24 76 30 117 21 130 -19
231 -131 332 -123 110 -354 115 -479 9 -59 -50 -73 -67 -107 -133 -26 -50 -28
-64 -28 -160 1 -142 21 -199 94 -257 l52 -43 -194 0 c-226 0 -217 -4 -249 107
-19 69 -26 205 -13 280 37 211 162 395 324 478 48 24 164 61 216 68 67 10 221
-6 300 -30z m-14 -462 c75 -76 -20 -200 -114 -150 -54 30 -69 76 -41 130 29
56 108 67 155 20z m-2131 -507 c47 -8 193 -33 325 -54 273 -45 306 -55 316
-90 9 -31 11 -1502 3 -1524 -9 -23 -51 -20 -189 13 -129 31 -506 134 -548 150
-14 6 -31 19 -37 30 -11 22 -15 1436 -3 1479 4 16 11 20 27 17 11 -3 59 -12
106 -21z m2303 -622 c23 -31 61 -90 85 -129 37 -60 42 -75 32 -92 -22 -41 -58
-27 -137 53 -94 96 -115 151 -77 204 25 36 50 27 97 -36z m275 -535 c19 -18
22 -30 22 -96 -1 -75 -1 -76 -37 -103 -44 -34 -73 -35 -108 -5 -35 29 -47 92
-31 155 10 39 19 51 51 69 42 23 58 20 103 -20z m-1133 -117 c3 -5 1 -10 -4
-10 -6 0 -11 5 -11 10 0 6 2 10 4 10 3 0 8 -4 11 -10z m990 -405 c30 -29 31
-41 7 -76 -28 -43 -117 -109 -147 -109 -8 0 -22 16 -30 37 -15 36 -15 37 22
91 61 88 102 104 148 57z"/>
<path d="M2608 4801 c-36 -23 -53 -43 -77 -93 l-30 -64 -9 -299 c-8 -261 -7
-383 2 -393 11 -11 44 21 90 87 135 193 326 482 326 494 0 21 -119 189 -173
245 -28 28 -58 52 -67 52 -9 0 -37 -13 -62 -29z"/>
<path d="M2487 2966 c-3 -7 -6 -268 -7 -578 -1 -529 0 -565 17 -580 21 -19
165 -59 316 -88 131 -24 163 -25 171 -4 3 9 6 278 6 599 0 454 -3 585 -12 592
-7 6 -62 17 -123 26 -60 9 -156 23 -213 32 -127 19 -148 19 -155 1z"/>
<path d="M12357 5028 c-13 -18 -55 -76 -92 -128 -37 -52 -72 -101 -78 -107 -7
-10 14 -13 101 -13 l110 0 109 128 c60 70 112 133 117 140 5 9 -20 12 -118 12
l-125 0 -24 -32z"/>
<path d="M7910 4840 l0 -110 164 0 165 0 4 -462 c3 -500 3 -501 60 -585 73
-108 152 -133 424 -133 l193 0 0 110 0 110 -177 0 c-206 0 -233 8 -252 77 -7
24 -11 228 -11 571 l0 532 -285 0 -285 0 0 -110z"/>
<path d="M15050 4690 c2 -245 -3 -303 -21 -236 -15 56 -59 105 -123 136 -53
27 -73 31 -142 31 -175 0 -288 -77 -346 -239 -17 -48 -21 -88 -25 -252 -3
-110 -1 -224 5 -260 24 -154 91 -254 204 -306 54 -24 75 -28 153 -29 141 0
219 44 265 148 11 26 25 47 30 47 6 0 10 -40 10 -90 l0 -90 115 0 115 0 0 700
0 700 -120 0 -121 0 1 -260z m-147 -281 c44 -12 101 -59 125 -103 14 -26 17
-61 17 -226 0 -184 -1 -197 -23 -237 -12 -24 -41 -55 -64 -70 -36 -24 -51 -28
-118 -28 -67 0 -82 4 -118 28 -23 15 -52 46 -64 70 -22 40 -23 53 -23 237 0
182 1 198 22 237 45 83 144 121 246 92z"/>
<path d="M16640 4840 l0 -110 164 0 165 0 4 -462 c3 -500 3 -501 60 -585 73
-108 152 -133 424 -133 l193 0 0 110 0 110 -177 0 c-206 0 -233 8 -252 77 -7
24 -11 228 -11 571 l0 532 -285 0 -285 0 0 -110z"/>
<path d="M12962 4833 l3 -108 168 -3 167 -2 0 -440 c0 -280 4 -458 11 -492 14
-69 49 -128 100 -172 73 -62 108 -69 352 -74 l217 -4 0 111 0 111 -183 0
c-200 0 -213 3 -242 60 -13 25 -15 110 -15 575 l0 545 -290 0 -291 0 3 -107z"/>
<path d="M6860 4240 l0 -690 425 0 425 0 0 105 0 105 -305 0 -305 0 0 195 0
195 270 0 270 0 0 110 0 110 -270 0 -270 0 0 175 0 175 305 0 305 0 0 105 0
105 -425 0 -425 0 0 -690z"/>
<path d="M9590 4230 l0 -690 263 0 c287 0 356 9 447 55 69 35 136 103 168 173
24 51 27 69 27 167 0 100 -2 115 -27 161 -45 85 -146 154 -224 154 -39 0 -36
19 3 26 95 18 167 74 203 157 30 67 33 180 7 254 -23 65 -89 140 -154 176 -91
49 -153 57 -445 57 l-268 0 0 -690z m547 469 c61 -29 86 -70 91 -144 5 -75
-13 -123 -59 -158 -49 -36 -100 -47 -226 -47 l-113 0 0 185 0 185 132 0 c113
0 138 -3 175 -21z m8 -568 c146 -66 152 -291 10 -365 -34 -18 -62 -22 -182
-24 l-143 -4 0 206 0 206 138 0 c111 0 145 -4 177 -19z"/>
<path d="M11090 4608 c-169 -15 -298 -104 -345 -237 -8 -24 -15 -45 -15 -47 0
-2 54 -4 120 -4 66 0 120 4 120 9 0 16 59 65 92 78 57 20 176 16 226 -8 61
-30 82 -68 82 -150 l0 -66 -182 -6 c-150 -4 -195 -9 -248 -27 -117 -39 -204
-123 -231 -225 -19 -69 -7 -183 26 -244 35 -63 71 -95 145 -130 48 -22 69 -25
160 -26 95 0 111 3 167 29 74 34 136 97 154 155 7 23 16 41 21 41 4 0 8 -47 8
-105 l0 -105 110 0 110 0 0 398 c0 449 -1 456 -72 537 -94 106 -246 152 -448
133z m280 -673 c0 -57 -5 -96 -15 -115 -64 -125 -327 -150 -395 -38 -35 58
-23 158 24 197 37 31 93 40 239 41 l147 0 0 -85z"/>
<path d="M15843 4605 c-159 -44 -264 -155 -292 -310 -6 -32 -11 -133 -11 -224
0 -242 24 -323 122 -418 106 -103 287 -145 461 -108 145 30 243 99 297 209
l31 61 -116 3 -115 3 -33 -34 c-41 -40 -99 -59 -187 -59 -142 0 -220 83 -220
233 l0 59 341 0 342 0 -5 143 c-4 114 -9 153 -27 198 -42 110 -117 185 -231
230 -72 29 -277 37 -357 14z m255 -190 c76 -32 121 -102 122 -187 l0 -48 -220
0 -220 0 0 39 c0 49 24 119 53 150 53 57 183 80 265 46z"/>
<path d="M11902 4203 l3 -398 28 -60 c63 -135 175 -207 347 -221 212 -18 387
73 452 234 22 55 23 68 26 450 l3 392 -120 0 -120 0 -3 -372 c-3 -340 -5 -376
-22 -410 -29 -59 -77 -83 -166 -83 -89 0 -127 18 -162 72 -23 38 -23 39 -26
416 l-3 377 -120 0 -120 0 3 -397z"/>
<path d="M12177 3074 c-4 -4 -7 -463 -7 -1021 l0 -1013 170 0 170 0 2 250 3
250 185 -240 c101 -133 189 -245 196 -251 7 -6 97 -8 226 -7 l215 3 -263 325
c-145 179 -263 328 -261 332 1 4 79 87 173 185 93 98 203 213 243 256 l74 77
-219 0 -219 -1 -175 -215 -175 -215 -5 643 -5 643 -161 3 c-88 1 -163 -1 -167
-4z"/>
<path d="M11663 2891 c-83 -38 -130 -145 -103 -234 26 -89 96 -140 189 -140
66 0 106 18 149 67 112 128 22 326 -148 326 -25 0 -64 -9 -87 -19z"/>
<path d="M13533 2891 c-83 -38 -130 -145 -103 -234 26 -89 96 -140 189 -140
66 0 106 18 149 67 112 128 22 326 -148 326 -25 0 -64 -9 -87 -19z"/>
<path d="M9580 1945 l0 -905 175 0 175 0 2 398 3 397 258 3 257 2 0 150 0 150
-257 2 -258 3 -3 198 -2 197 275 0 275 0 0 155 0 155 -450 0 -450 0 0 -905z"/>
<path d="M11233 2246 c-63 -16 -124 -54 -175 -110 l-38 -41 0 63 0 62 -167 -2
-168 -3 -3 -587 -2 -588 170 0 170 0 0 308 c0 392 13 473 86 545 75 74 173 85
295 33 14 -6 19 11 33 126 9 73 19 143 22 155 3 19 -2 24 -33 32 -68 18 -137
20 -190 7z"/>
<path d="M11580 1630 l0 -590 170 0 170 0 0 590 0 590 -170 0 -170 0 0 -590z"/>
<path d="M13450 1630 l0 -590 170 0 170 0 0 590 0 590 -170 0 -170 0 0 -590z"/>
<path d="M1370 738 c0 -172 9 -215 64 -329 63 -132 170 -218 331 -266 58 -17
381 -18 8055 -18 7737 0 7997 1 8065 18 190 51 321 179 377 372 13 46 17 98
18 218 l0 157 -180 0 -180 0 -1 -137 c-1 -151 -8 -176 -63 -217 l-27 -21
-8004 0 -8004 0 -28 21 c-27 20 -52 59 -58 93 -2 9 -4 71 -4 139 l-1 122 -180
0 -180 0 0 -152z m7957 -254 c-3 -3 -12 -4 -19 -1 -8 3 -5 6 6 6 11 1 17 -2
13 -5z m1690 0 c-3 -3 -12 -4 -19 -1 -8 3 -5 6 6 6 11 1 17 -2 13 -5z m90 0
c-3 -3 -12 -4 -19 -1 -8 3 -5 6 6 6 11 1 17 -2 13 -5z m4693 -84 c0 -5 -2 -10
-4 -10 -3 0 -8 5 -11 10 -3 6 -1 10 4 10 6 0 11 -4 11 -10z m-11533 -152 c-3
-8 -6 -5 -6 6 -1 11 2 17 5 13 3 -3 4 -12 1 -19z m-142 -48 c3 -5 1 -10 -4
-10 -6 0 -11 5 -11 10 0 6 2 10 4 10 3 0 8 -4 11 -10z m4665 0 c0 -5 -4 -10
-9 -10 -6 0 -13 5 -16 10 -3 6 1 10 9 10 9 0 16 -4 16 -10z"/>
</g>
</svg>